<svg id="visual" viewBox="0 0 900 600" width="900" height="600" xmlns="http://www.w3.org/2000/svg" xmlns:xlink="http://www.w3.org/1999/xlink" version="1.1"><path d="M0 85L13.7 80C27.3 75 54.7 65 82 67C109.3 69 136.7 83 163.8 85C191 87 218 77 245.2 73C272.3 69 299.7 71 327 67C354.3 63 381.7 53 409 57C436.3 61 463.7 79 491 80C518.3 81 545.7 65 573 56C600.3 47 627.7 45 654.8 54C682 63 709 83 736.2 89C763.3 95 790.7 87 818 79C845.3 71 872.7 63 886.3 59L900 55L900 0L886.3 0C872.7 0 845.3 0 818 0C790.7 0 763.3 0 736.2 0C709 0 682 0 654.8 0C627.7 0 600.3 0 573 0C545.7 0 518.3 0 491 0C463.7 0 436.3 0 409 0C381.7 0 354.3 0 327 0C299.7 0 272.3 0 245.2 0C218 0 191 0 163.8 0C136.7 0 109.3 0 82 0C54.7 0 27.3 0 13.7 0L0 0Z" fill="#eeeeee"></path><path d="M0 193L13.7 191C27.3 189 54.7 185 82 179C109.3 173 136.7 165 163.8 153C191 141 218 125 245.2 118C272.3 111 299.7 113 327 119C354.3 125 381.7 135 409 144C436.3 153 463.7 161 491 154C518.3 147 545.7 125 573 113C600.3 101 627.7 99 654.8 105C682 111 709 125 736.2 130C763.3 135 790.7 131 818 136C845.3 141 872.7 155 886.3 162L900 169L900 53L886.3 57C872.7 61 845.3 69 818 77C790.7 85 763.3 93 736.2 87C709 81 682 61 654.8 52C627.7 43 600.3 45 573 54C545.7 63 518.3 79 491 78C463.7 77 436.3 59 409 55C381.7 51 354.3 61 327 65C299.7 69 272.3 67 245.2 71C218 75 191 85 163.8 83C136.7 81 109.3 67 82 65C54.7 63 27.3 73 13.7 78L0 83Z" fill="#eaeaea"></path><path d="M0 277L13.7 282C27.3 287 54.7 297 82 315C109.3 333 136.7 359 163.8 343C191 327 218 269 245.2 249C272.3 229 299.7 247 327 259C354.3 271 381.7 277 409 299C436.3 321 463.7 359 491 372C518.3 385 545.7 373 573 378C600.3 383 627.7 405 654.8 387C682 369 709 311 736.2 281C763.3 251 790.7 249 818 252C845.3 255 872.7 263 886.3 267L900 271L900 167L886.3 160C872.7 153 845.3 139 818 134C790.7 129 763.3 133 736.2 128C709 123 682 109 654.8 103C627.7 97 600.3 99 573 111C545.7 123 518.3 145 491 152C463.7 159 436.3 151 409 142C381.7 133 354.3 123 327 117C299.7 111 272.3 109 245.2 116C218 123 191 139 163.8 151C136.7 163 109.3 171 82 177C54.7 183 27.3 187 13.7 189L0 191Z" fill="#e6e6e6"></path><path d="M0 499L13.7 505C27.3 511 54.7 523 82 520C109.3 517 136.7 499 163.8 488C191 477 218 473 245.2 474C272.3 475 299.7 481 327 487C354.3 493 381.7 499 409 496C436.3 493 463.7 481 491 474C518.3 467 545.7 465 573 476C600.3 487 627.7 511 654.8 523C682 535 709 535 736.2 533C763.3 531 790.7 527 818 522C845.3 517 872.7 511 886.3 508L900 505L900 269L886.3 265C872.7 261 845.3 253 818 250C790.7 247 763.3 249 736.2 279C709 309 682 367 654.8 385C627.7 403 600.3 381 573 376C545.7 371 518.3 383 491 370C463.7 357 436.3 319 409 297C381.7 275 354.3 269 327 257C299.7 245 272.3 227 245.2 247C218 267 191 325 163.8 341C136.7 357 109.3 331 82 313C54.7 295 27.3 285 13.7 280L0 275Z" fill="#dedede"></path><path d="M0 601L13.7 601C27.3 601 54.7 601 82 601C109.3 601 136.7 601 163.8 601C191 601 218 601 245.2 601C272.3 601 299.7 601 327 601C354.3 601 381.7 601 409 601C436.3 601 463.7 601 491 601C518.3 601 545.7 601 573 601C600.3 601 627.7 601 654.8 601C682 601 709 601 736.2 601C763.3 601 790.7 601 818 601C845.3 601 872.7 601 886.3 601L900 601L900 503L886.3 506C872.7 509 845.3 515 818 520C790.7 525 763.3 529 736.2 531C709 533 682 533 654.8 521C627.7 509 600.3 485 573 474C545.7 463 518.3 465 491 472C463.7 479 436.3 491 409 494C381.7 497 354.3 491 327 485C299.7 479 272.3 473 245.2 472C218 471 191 475 163.8 486C136.7 497 109.3 515 82 518C54.7 521 27.3 509 13.7 503L0 497Z" fill="#d6d6d6"></path></svg>